<svg version="1.1" id="Laag_1" xmlns="http://www.w3.org/2000/svg" xmlns:xlink="http://www.w3.org/1999/xlink" x="0px" y="0px"
	 viewBox="0 0 180 185.2" style="enable-background:new 0 0 180 185.2;" xml:space="preserve">
<style type="text/css">
	.st0{fill:#787878;}
</style>
<path class="st0" d="M28,164.8c0,5.6-2.6,12.2-9.8,12.2c-4.4,0-6.9-2.4-6.9-7.1c0-5.6,4.6-8.9,13-8.9c1,0,3.2,0,3.7,0.1V164.8z
	 M39.6,184.3c-0.3-2.3-0.5-5.7-0.5-9v-22.7c0-7.3-2.3-17-18.5-17c-6.3,0-11.8,1.5-15.7,3.5l0.6,9.6c3.2-2.6,8.1-4.7,13.1-4.7
	c7.3,0,9.4,4.1,9.4,8.5v1.9h-4.4C7.1,154.5,0,160.7,0,170.7c0,9.2,5.9,14.6,14.2,14.6c6.4,0,10.3-3,13.8-7.4h0.1
	c0,1.1,0.5,5.4,0.5,6.5H39.6z"/>
<path class="st0" d="M60.1,185.2c-5.1,0-10.8-1.1-13.8-2.5l0.4-10c3.1,1.7,7,3.4,12,3.4c5.2,0,7.9-2.1,7.9-5c0-2.5-1.5-4.1-5.7-5.7
	l-5.1-2c-7.2-2.9-9.7-6.9-9.7-12.9c0-8.3,5.8-14.8,17.7-14.8c4.4,0,8.6,0.8,11.8,1.9l-0.5,9.4c-2.8-1.2-6.7-2.5-10.6-2.5
	c-4.2,0-6.9,1.9-6.9,5c0,2.7,2.1,4.4,6.8,6.1l4.2,1.6c5.8,2.2,9.5,5.7,9.5,12.8C78,179,72.6,185.2,60.1,185.2"/>
<rect x="84.8" y="136.5" class="st0" width="12.3" height="47.9"/>
<path class="st0" d="M124.7,185.2c-8.2,0-13.2-4.1-13.2-12.8v-27.1h-8v-8.9h8v-9.9l12.2-3.7v13.6h9.6v8.9h-9.6v24.2
	c0,4.7,1.9,6.6,5.2,6.6c1.8,0,3.2-0.4,4.4-0.9l0.2,8.8C131.6,184.6,128.2,185.2,124.7,185.2"/>
<path class="st0" d="M167.2,160c0,9.5-2.2,16-8.7,16c-6.6,0-8.7-6.5-8.7-16c0-9.4,2.1-16,8.7-16C165,144,167.2,150.6,167.2,160
	 M180,160c0-13.9-6.5-24.8-21.5-24.8c-15.1,0-21.5,10.9-21.5,24.8c0,14,6.4,24.9,21.5,24.9C173.5,184.8,180,174,180,160"/>
<path class="st0" d="M97.6,122.2c0,3.7-3,6.8-6.8,6.8c-3.7,0-6.8-3-6.8-6.8c0-3.7,3-6.8,6.8-6.8C94.6,115.5,97.6,118.5,97.6,122.2"
	/>
<g>
	<path class="st0" d="M163.2,74.6l0-4.3l0,0c0-0.4,0-0.8,0-1.3c-0.3-13.5-10-19.5-14.1-22.1c-2.1-1.4-4.8-2.6-7.8-3.8
		c2.5-1.4,4.4-3.8,4.9-6.5l0.1-8.4c0-0.4,0-0.8,0-1.2l0-4.4h-0.1c-0.2-10-7.1-17.1-20.9-21.1c-2.8-0.8-6.9-1.3-11-1.3
		c-5,0-17.1,0.8-23.7,7.6C83.9,1,71.8,0.3,66.8,0.3c-4.2,0-8.2,0.5-11,1.3c-14,4.1-20.9,11.3-20.8,21.6c0,0.1,0,0.1,0,0.2l-0.1,0.1
		l0,0.7c-0.1,2.1-0.1,4.5,0,6.3l0.1,6.2c0.4,2.7,2.4,5.1,4.8,6.5c-3.1,1.2-5.7,2.4-7.8,3.8c-4.1,2.6-13.8,8.7-14.2,22.1
		c0,0.4,0,0.8,0,1.2l0,4.2l0-0.1l0,5.8c-0.4,15.1,9.9,22.7,16.1,25.9c4.7,2.4,10.4,3.8,16.2,3.8c6.1,0,12-1.4,17.6-4.2
		c5.6-2.8,9.4-4.9,12.2-6.4c4.9-2.7,6.8-3.8,10.1-4l1.1,0c3.3,0.3,5.2,1.3,10.1,4c2.8,1.5,6.6,3.6,12.2,6.4
		c5.6,2.8,11.6,4.2,17.7,4.2c5.8,0,11.4-1.3,16.2-3.8c6.2-3.2,16.4-10.8,16.1-25.9l0-4.9C163.2,75,163.2,74.8,163.2,74.6L163.2,74.6
		z M138.9,42.3c-3.6-1.3-7.5-2.4-11.5-3.6c-1.5-1.3-3.2-3.1-5-5.5c-5.1-6.7-9.3-10.9-14.3-10.9c-1.3,0-2.6,0.3-3.9,0.8
		c-2,0.8-3.4,1.8-4.4,2.7c-0.3-0.5-0.5-1-0.6-1.5c0.6-1.8,2.1-3.6,5.8-5.1c1.1-0.5,2.1-0.7,3.2-0.7c4.2,0,8.1,3.9,12.9,10.2
		c6.9,9,11.6,10.1,14.9,10.1h0.4c0.1,0,0.2,0,0.3,0c2.9,0.1,5.9-1.6,7.7-4l0,1.5C143.9,39,141.6,41.4,138.9,42.3z M123.9,37.7
		c-6.9-1.9-13.3-3.8-17.4-5.8c-2.8-1.4-4.6-2.9-5.7-4.5c0.9-0.9,2.2-1.8,4.2-2.6c1.1-0.5,2.1-0.7,3.2-0.7c4.2,0,8.1,3.9,12.9,10.2
		C122,35.6,123,36.7,123.9,37.7z M98.7,21.4c0-2.5,0.6-5.4,6.2-7.8c1.1-0.5,2.1-0.7,3.2-0.7c4.2,0,8.1,3.9,12.9,10.2
		c7.8,10.1,13,10.1,14.9,10.1l0.5,0c0.1,0,0.2,0,0.3,0c2.9,0.1,5.9-1.6,7.8-4c0,0.5,0,1,0,1.5c-0.5,3.3-4.1,6.3-7.4,6.3l-0.2,0
		c-0.1,0-0.2,0-0.4,0h-0.4c-1.7,0-6.2,0-13.5-9.4c-5.1-6.7-9.3-10.9-14.3-10.9c-1.3,0-2.6,0.3-3.9,0.8C101.5,18.7,99.8,20,98.7,21.4
		z M36.7,36.4l0-1.5c1.8,2.3,4.6,3.9,7.4,3.9c0.1,0,0.2,0,0.3,0c0.1,0,0.2,0,0.3,0h0.4c3.3,0,8-1.1,14.9-10.1
		c4.8-6.3,8.6-10.2,12.9-10.2c1,0,2.1,0.2,3.2,0.7c3.7,1.6,5.2,3.4,5.8,5.1c-0.2,0.5-0.4,1-0.6,1.5c-1.1-1-2.5-1.9-4.4-2.7
		c-1.3-0.6-2.6-0.8-3.9-0.8c-5,0-9.2,4.2-14.3,10.9c-1.9,2.4-3.5,4.2-5,5.5c-4,1.1-7.9,2.3-11.5,3.6C39.5,41.4,37.1,39,36.7,36.4z
		 M36.7,29.3c1.8,2.4,4.8,4.1,7.7,4c0.1,0,0.2,0,0.3,0l0.5,0c3.3,0,8-1.2,14.9-10.1c4.8-6.3,8.6-10.2,12.9-10.2c1,0,2.1,0.2,3.2,0.7
		c5.9,2.5,6.2,5.9,6.2,7.8c-1.1-1.4-2.8-2.7-5.5-3.9c-1.3-0.6-2.6-0.8-3.9-0.8c-5,0-9.2,4.2-14.3,10.9C51.4,37,46.9,37,45.1,37h-0.4
		c-0.1,0-0.2,0-0.3,0l-0.2,0c-3.4,0-6.9-3-7.4-6.2C36.7,30.3,36.7,29.8,36.7,29.3z M80.3,27.4c-1.2,1.5-3,3.1-5.7,4.5
		c-4,2-10.5,3.9-17.4,5.8c0.9-1,1.9-2.1,2.9-3.4c4.8-6.3,8.6-10.2,12.9-10.2c1,0,2.1,0.2,3.2,0.7C78.1,25.6,79.4,26.5,80.3,27.4z
		 M33,48.4c5.2-3.5,14.8-6.2,24.1-8.8c7.2-2,14-3.9,18.3-6.1c7.6-3.8,8.8-9,8.8-11.8c0-3.2-0.9-6.9-7.3-9.7
		c-1.3-0.6-2.6-0.8-3.9-0.8c-5,0-9.2,4.2-14.3,10.9c-7.3,9.4-11.8,9.4-13.5,9.4l-0.5,0c-0.1,0-0.2,0-0.3,0l-0.2,0
		c-3.4,0-6.9-3-7.4-6.2C35.6,14.6,42,7.4,56.3,3.3c2.7-0.8,6.5-1.2,10.5-1.2c4.9,0,17,0.7,22.9,7.5L90,9.9h1.1l0.3-0.3
		c6-6.8,18-7.5,22.9-7.5c4,0,7.8,0.4,10.5,1.2c14.2,4.1,20.6,11.3,19.5,21.9c-0.5,3.3-4.1,6.3-7.4,6.3l-0.2,0c-0.1,0-0.2,0-0.3,0
		l-0.5,0c-1.7,0-6.2,0-13.5-9.4c-5.1-6.7-9.3-10.9-14.3-10.9c-1.3,0-2.6,0.3-3.9,0.8c-6.4,2.7-7.3,6.4-7.3,9.7c0,2.8,1.1,8,8.7,11.8
		c4.3,2.2,11.1,4.1,18.3,6.1c9.3,2.6,18.9,5.3,24.1,8.8c4.2,2.6,13,8.1,13.3,20.7c0.4,14.1-9.3,21.2-15.1,24.3
		c-4.4,2.3-9.9,3.6-15.4,3.6c-5.8,0-11.5-1.4-16.8-4c-5.5-2.8-9.3-4.8-12.1-6.4c-5.1-2.8-7.2-4-11-4.3l-1.2,0
		c-3.7,0.3-5.8,1.5-10.9,4.3c-2.8,1.5-6.6,3.6-12.1,6.4c-5.4,2.7-11,4-16.8,4c-5.5,0-10.9-1.3-15.4-3.6c-5.8-3-15.5-10.1-15.1-24.3
		C19.9,56.6,28.7,51.1,33,48.4z M33.9,94.9c4.7,2.4,10.4,3.8,16.2,3.8c6.1,0,12-1.4,17.6-4.2c5.5-2.8,9.3-4.9,12.1-6.4
		c5-2.7,6.8-3.8,10.1-4l1.1,0c3.3,0.3,5.2,1.3,10.2,4c2.8,1.5,6.6,3.6,12.1,6.4c5.6,2.8,11.5,4.2,17.6,4.2h0
		c5.8,0,11.4-1.3,16.2-3.8c4.2-2.2,10.3-6.4,13.6-13.6c-2.2,9.7-9.7,15.1-14.4,17.6c-4.4,2.3-9.9,3.6-15.4,3.6
		c-5.8,0-11.5-1.4-16.8-4c-5.5-2.8-9.3-4.8-12.1-6.4c-5.1-2.8-7.2-4-11-4.3l-1.2,0c-3.7,0.3-5.8,1.5-10.9,4.3
		c-2.8,1.5-6.6,3.6-12,6.4c-5.4,2.7-11,4-16.8,4c-5.5,0-10.9-1.3-15.3-3.6c-4.8-2.5-12.2-7.8-14.5-17.6
		C23.6,88.5,29.7,92.7,33.9,94.9z M146.3,104.5c-4.4,2.3-9.9,3.6-15.3,3.6c-5.8,0-11.5-1.4-16.9-4c-5.5-2.8-9.3-4.9-12.1-6.4
		c-5-2.8-7.1-3.9-10.9-4.2l-1.2,0c-3.7,0.3-5.8,1.5-10.9,4.3c-2.8,1.5-6.6,3.6-12.1,6.4c-5.4,2.7-11,4-16.9,4
		c-5.5,0-10.9-1.3-15.3-3.6c-4.8-2.5-12.2-7.8-14.5-17.6c3.4,7.2,9.4,11.4,13.6,13.6c4.7,2.4,10.4,3.8,16.2,3.8
		c6.1,0,12-1.4,17.6-4.2c5.5-2.8,9.3-4.9,12.1-6.4c5-2.7,6.8-3.8,10.1-4.1l1.1,0c3.3,0.3,5.2,1.3,10.2,4c2.8,1.5,6.6,3.6,12.1,6.4
		c5.6,2.8,11.5,4.2,17.6,4.2c5.8,0,11.4-1.3,16.2-3.8c4.2-2.2,10.3-6.4,13.6-13.6C158.5,96.6,151.1,102,146.3,104.5z"/>
	<path class="st0" d="M113.9,82.5c1.2,0.2,2.4,0.3,3.6,0.3c12.7,0,15.5-10.6,15.5-14.3c0-2.9,0-10.6-16.5-17
		c-15.2-6-16.9-8-17.5-13.9l-1.8,0.1v18.6C97.2,72.1,102.8,80.9,113.9,82.5z M130.5,71.8c-2.2-3-6.3-6.2-14-9.3
		c-14.7-5.8-16.8-7.8-17.4-13.4c2.2,3.2,6.8,5.5,16.8,9.4c10.8,4.3,14,8.9,14.9,12.2C130.7,71.1,130.6,71.5,130.5,71.8z M115.9,53.1
		c13.3,5.2,15.1,11.1,15.3,14.2c-2-3.2-6-6.9-14.6-10.3c-14.7-5.8-16.8-7.8-17.4-13.4C101.3,46.8,105.9,49.2,115.9,53.1z M99,54.7
		c2.2,3.2,6.8,5.6,16.8,9.5c8.3,3.3,12.1,6.7,13.8,9.7c-1.6,3.4-5.1,7.1-12.2,7.1c-1,0-2.2-0.1-3.3-0.2C99,78.6,99,61.8,99,56.2
		V54.7z"/>
	<path class="st0" d="M63.6,82.7c1.1,0,2.3-0.1,3.5-0.3c11-1.5,16.6-10.3,16.6-26l0,0v-0.2v-0.7v-6.8v-5.6v-5.6L82,37.5
		c-0.6,6-2.2,8-17.5,13.9c-16.5,6.5-16.5,14.1-16.5,17C48.1,72.2,50.9,82.7,63.6,82.7z M66.9,80.7c-1.1,0.2-2.3,0.2-3.3,0.2
		c-7.2,0-10.6-3.7-12.2-7.1c1.7-2.9,5.5-6.4,13.8-9.7c10.1-3.9,14.7-6.3,16.8-9.5v1.5C82,61.8,82,78.6,66.9,80.7z M50.3,70.8
		c0.9-3.3,4.1-7.9,14.9-12.2c10-3.9,14.6-6.2,16.7-9.4c-0.6,5.5-2.7,7.6-17.4,13.3c-7.7,3-11.8,6.3-14,9.3
		C50.4,71.5,50.3,71.1,50.3,70.8z M65.2,53.1c10-3.9,14.6-6.2,16.7-9.4c-0.6,5.5-2.7,7.6-17.4,13.3c-8.6,3.4-12.7,7.1-14.6,10.3
		C50.1,64.1,51.9,58.3,65.2,53.1z"/>
</g>
</svg>
