<svg version="1.1" xmlns="http://www.w3.org/2000/svg" xmlns:xlink="http://www.w3.org/1999/xlink" x="0px" y="0px" viewBox="0 0 24 24" style="enable-background:new 0 0 24 24;" xml:space="preserve">
	<g transform="translate(-601.000000, -161.000000)">
		<path fill="#EC4989" d="M618.7,181.5c-0.1-0.6-0.7-3.6-2-7.3c3.3-0.5,6.2,0.4,6.4,0.4
			C622.7,177.5,621,179.9,618.7,181.5L618.7,181.5L618.7,181.5z M613,183.2c-2.5,0-4.8-0.9-6.5-2.3c0.1,0.1,0.2,0.2,0.2,0.2
			s2-4.3,8-6.4c0,0,0,0,0.1,0c1.4,3.7,2,6.9,2.2,7.8C615.8,183,614.4,183.2,613,183.2L613,183.2L613,183.2z M602.8,173
			c0-0.1,0-0.2,0-0.3c0.2,0,5.2,0.1,10.5-1.5c0.3,0.6,0.6,1.2,0.8,1.7c-0.1,0-0.3,0.1-0.4,0.1c-5.5,1.8-8.3,6.8-8.3,6.8s0,0,0,0
			C603.7,178,602.8,175.6,602.8,173L602.8,173L602.8,173z M608.6,163.7c0.1,0.2,2,2.8,3.8,5.9c-4.9,1.3-9.2,1.3-9.5,1.3
			C603.6,167.7,605.8,165.1,608.6,163.7L608.6,163.7L608.6,163.7z M610.5,163.1C610.5,163.1,610.5,163.1,610.5,163.1
			C610.5,163.1,610.5,163.1,610.5,163.1C610.5,163.1,610.5,163.1,610.5,163.1L610.5,163.1L610.5,163.1z M619.8,165.3
			c0,0-1.5,2.3-5.4,3.7c-1.8-3.2-3.7-5.8-3.8-6c0.8-0.2,1.6-0.3,2.4-0.3C615.6,162.8,618,163.7,619.8,165.3L619.8,165.3L619.8,165.3
			z M623.2,172.9c-0.1,0-3.6-0.8-7.1-0.3c-0.1-0.2-0.1-0.4-0.2-0.5c-0.2-0.5-0.4-1-0.7-1.5c4-1.7,5.7-4,5.7-4.1
			C622.4,168.2,623.2,170.5,623.2,172.9L623.2,172.9L623.2,172.9z M624.8,170.6c-0.2-0.8-0.4-1.5-0.7-2.3c-0.3-0.7-0.7-1.4-1.1-2
			c-0.4-0.6-0.9-1.2-1.5-1.8c-0.5-0.5-1.1-1-1.8-1.5c-0.6-0.4-1.3-0.8-2-1.1c-0.7-0.3-1.5-0.5-2.3-0.7c-0.8-0.2-1.6-0.2-2.4-0.2
			c-0.8,0-1.6,0.1-2.4,0.2c-0.8,0.2-1.5,0.4-2.3,0.7c-0.7,0.3-1.4,0.7-2,1.1c-0.6,0.4-1.2,0.9-1.8,1.5c-0.5,0.5-1,1.1-1.5,1.8
			c-0.4,0.6-0.8,1.3-1.1,2c-0.3,0.7-0.5,1.5-0.7,2.3c-0.2,0.8-0.2,1.6-0.2,2.4c0,0.8,0.1,1.6,0.2,2.4c0.2,0.8,0.4,1.5,0.7,2.3
			c0.3,0.7,0.7,1.4,1.1,2c0.4,0.6,0.9,1.2,1.5,1.8c0.5,0.5,1.1,1,1.8,1.5c0.6,0.4,1.3,0.8,2,1.1c0.7,0.3,1.5,0.5,2.3,0.7
			c0.8,0.2,1.6,0.2,2.4,0.2c0.8,0,1.6-0.1,2.4-0.2c0.8-0.2,1.5-0.4,2.3-0.7c0.7-0.3,1.4-0.7,2-1.1c0.6-0.4,1.2-0.9,1.8-1.5
			c0.5-0.5,1-1.1,1.5-1.8c0.4-0.6,0.8-1.3,1.1-2c0.3-0.7,0.5-1.5,0.7-2.3c0.2-0.8,0.2-1.6,0.2-2.4
			C625,172.2,624.9,171.4,624.8,170.6L624.8,170.6L624.8,170.6z"/>
	</g>
</svg>
