<svg version="1.1" id="Laag_1" xmlns="http://www.w3.org/2000/svg" xmlns:xlink="http://www.w3.org/1999/xlink" x="0px" y="0px"
	 viewBox="0 0 180 225.5" style="enable-background:new 0 0 180 225.5;" xml:space="preserve">
<style type="text/css">
	.st0{fill:#787878;}
	.st1{fill:#F1F4F6;}
	.st2{fill:none;}
	.st3{fill:#FFFFFF;}
</style>
<g>
	<g>
		<path class="st0" d="M89.8,7.3c-23.4,0-40.3,4.3-53.5,8.8c-13.2,4.6-28,5.9-28,5.9l2.1,36.6c4.8,4.3,4.7,6.2,5.4,14
			c0.7,7.7,4.8,76.9,4.8,76.9c1.1,24.7,0.5,35.8,9.7,44.9c8.4,8.4,21.5,9.6,21.5,9.6s10.5,0.3,19.9,2.8c8.5,2.3,15.7,11.6,15.7,11.6
			h5.8c0,0,7.2-9.3,15.6-11.6c9.4-2.6,19.9-2.8,19.9-2.8s13.1-1.2,21.5-9.6c9.2-9.2,8.6-20.2,9.7-44.9c0,0,4.2-69.2,4.8-76.9
			c0.7-8.1,0.5-9.7,5.4-14l2.2-36.6c0,0-14.8-1.3-28-5.9c-13.2-4.6-30.1-8.8-53.5-8.8H89.8z"/>
		<path class="st0" d="M89.8,0C63.5,0,45.3,5.3,33.9,9.2c-12.1,4.2-26.1,5.5-26.2,5.5l-7,0.6l0.4,7L3.4,62l2.2,2
			C8,66.1,8,66.1,8.5,71.6l0.1,1.6c0.7,7.5,4.8,76,4.8,76.6c0-0.1,0.3,6.2,0.3,6.2c0.8,20.5,1.2,33.1,11.5,43.4
			c10.1,10.1,25.4,11.6,26,11.7l0.2,0l0.2,0c0.1,0,9.8,0.3,18.2,2.6c4.9,1.3,10.4,7.1,11.9,9l2.2,2.8l3.5,0h9.3l2.2-2.8
			c1.5-1.9,6.9-7.7,11.8-9c8.4-2.3,18.1-2.6,18.2-2.6l0.2,0l0.2,0c0.6-0.1,15.9-1.5,26-11.7c10.4-10.4,10.7-22.9,11.5-43.3l0.3-6.5
			c0-0.6,4.2-69.1,4.8-76.6l0.1-1.5c0.5-5.6,0.5-5.6,2.8-7.6l2.2-2l2.7-46.6l-7-0.6c-0.1,0-14.1-1.3-26.2-5.5
			C135.4,5.3,117.1,0,90.9,0H89.8z M38.7,22.9c10.4-3.6,27.1-8.4,51.1-8.4h1.1c24.1,0,40.7,4.8,51.1,8.4c8.2,2.9,16.9,4.5,22.7,5.4
			c-0.5,8.1-1.4,23.2-1.6,27c-4.3,4.6-4.8,8.3-5.4,15.1l-0.1,1.5c-0.7,7.7-4.7,74.3-4.9,77.1c0,0.1-0.3,6.6-0.3,6.6
			c-0.8,19.8-1.2,27.5-7.3,33.6c-6.1,6.1-16.2,7.4-16.9,7.4c-1.7,0.1-11.9,0.5-21.3,3.1c-7.2,2-13.3,7.3-16.6,10.9
			c-3.4-3.5-9.4-8.9-16.7-10.9c-9.4-2.6-19.5-3-21.3-3.1c-0.7-0.1-10.8-1.3-16.9-7.4c-6.1-6.1-6.5-13.8-7.3-33.7l-0.3-6.4
			c-0.2-2.9-4.2-69.5-4.9-77.2L23,70.3c-0.5-6.1-0.9-10.1-5.4-14.9c-0.2-3.8-1.1-18.9-1.6-27C21.8,27.4,30.5,25.8,38.7,22.9z"/>
	</g>
	<g>
		<path class="st0" d="M89.8,7.3c-23.4,0-40.3,4.3-53.5,8.8c-13.2,4.6-28,5.9-28,5.9l2.1,36.6c4.8,4.3,4.7,6.2,5.4,14
			c0.7,7.7,4.8,76.9,4.8,76.9c1.1,24.7,0.5,35.8,9.7,44.9c8.4,8.4,21.5,9.6,21.5,9.6s10.5,0.3,19.9,2.8c8.5,2.3,15.7,11.6,15.7,11.6
			h5.8c0,0,7.2-9.3,15.6-11.6c9.4-2.6,19.9-2.8,19.9-2.8s13.1-1.2,21.5-9.6c9.2-9.2,8.6-20.2,9.7-44.9c0,0,4.2-69.2,4.8-76.9
			c0.7-8.1,0.5-9.7,5.4-14l2.2-36.6c0,0-14.8-1.3-28-5.9c-13.2-4.6-30.1-8.8-53.5-8.8H89.8z"/>
		<path class="st1" d="M89.8,5C64.3,5,46.6,10.1,35.6,14c-12.8,4.4-27.3,5.8-27.4,5.8L6,20l2.3,39.6L9,60.2
			c3.8,3.4,3.9,4.6,4.5,10.9l0.1,1.6c0.7,7.5,4.8,76.1,4.8,76.8c0,0,0.3,6.3,0.3,6.3c0.8,20.3,1.1,31.1,10.1,40.1
			c8.8,8.9,22.3,10.1,22.9,10.2c0.2,0,10.5,0.3,19.5,2.8c7.6,2.1,14.5,10.7,14.5,10.8l0.7,0.9l7.9,0l0.7-0.9
			c0.1-0.1,6.8-8.7,14.5-10.8c9-2.4,19.3-2.7,19.4-2.7c0.7-0.1,14.2-1.3,23-10.2c9-9,9.3-19.8,10.1-39.9l0.3-6.5
			c0-0.7,4.2-69.2,4.8-76.8l0.1-1.5c0.6-6.7,0.7-7.6,4.5-11l0.7-0.6l2.3-39.6l-2.1-0.2c-0.1,0-14.7-1.4-27.4-5.8
			C134,10.1,116.4,5,90.9,5H89.8z M37,18.2C47.8,14.4,65,9.5,89.8,9.5h1.1c24.8,0,42,5,52.8,8.7c10.5,3.7,21.8,5.3,26.4,5.8
			c-0.2,3.6-1.9,32-2,33.6c-4.5,4.2-4.7,6.6-5.3,13.3l-0.1,1.5c-0.7,7.6-4.7,74.1-4.8,76.9c0,0-0.3,6.5-0.3,6.5
			c-0.8,19.4-1,29.2-8.8,36.9c-7.7,7.7-20,8.9-20.1,8.9c-0.3,0-10.8,0.3-20.3,2.9c-7.6,2.1-14.1,9.1-16.1,11.5c-1.1,0-2.6,0-3.7,0
			c-2-2.4-8.5-9.4-16.2-11.5c-9.5-2.6-20-2.9-20.4-2.9l0,0c0,0-12.3-1.2-20-8.9c-7.7-7.7-8-17.6-8.8-37.1l-0.3-6.4
			c-0.2-2.9-4.1-69.4-4.8-77l-0.1-1.6c-0.6-6.2-0.9-9-5.3-13.2c-0.1-1.6-1.8-30-2-33.6C15.2,23.4,26.5,21.8,37,18.2z"/>
	</g>
	<g>
		<path class="st1" d="M72.9,180.8v10.3c0,0.6,0.3,1,1,1h1.4v1.8h-8.5v-1.8h1.4c0.7,0,1-0.4,1-1v-6.7h-2.4v-1.8h0.6
			c1.3,0,2.2-0.4,2.8-1.7H72.9z"/>
		<path class="st1" d="M85.2,187.9c-1.2,0.8-1.9,1-3.3,1c-2.6,0-4.5-1.4-4.5-4c0-3.1,2.8-4.4,5.6-4.4c4.4,0,6.3,3,6.3,6.4
			c0,4.5-2.2,7.5-6.8,7.5h0c-1.7,0-4.5-0.6-4.5-2.8c0-1.4,0.9-1.9,1.9-1.9c1.2,0,2,0.6,2,1.4c0,0.7-0.3,1-0.9,1.3
			c0.4,0.2,0.7,0.3,1.1,0.3c2.3,0,3.2-1.6,3.2-4.1V187.9z M81.4,184.7c0,1.7,0.7,2.4,1.8,2.4c1.1,0,1.8-0.8,1.8-2.4
			c0-1.7-0.7-2.5-1.8-2.5C82.1,182.3,81.4,183,81.4,184.7z"/>
		<path class="st1" d="M95.6,187c1.2-0.8,1.9-1,3.3-1c2.4,0,4.5,1.4,4.5,4c0,3.1-2.8,4.4-5.5,4.4c-4.3,0-6.3-2.4-6.3-6.4
			c0-4.5,2.1-7.5,6.8-7.5c1.7,0,4.5,0.9,4.5,2.8c0,1.4-0.8,1.9-2.2,1.9c-0.9,0-1.7-0.6-1.7-1.4c0-0.7,0.3-1,0.9-1.3
			c-0.4-0.2-0.7-0.3-1.1-0.3c-2.2,0-3.2,1.6-3.2,3.6V187z M95.9,190.2c0,1.7,0.7,2.4,1.8,2.4c1.1,0,1.8-0.8,1.8-2.4
			c0-1.7-0.7-2.5-1.8-2.5C96.6,187.7,95.9,188.5,95.9,190.2z"/>
		<path class="st1" d="M107.2,180.5c1.5,0.2,3,0.3,4.6,0.3c1.5,0,4.1-0.3,4.5-0.3c0.3,0,0.4,0.2,0.4,0.4c0,1.6-3,2.7-5.8,2.7
			c-0.8,0-1.5-0.1-2-0.3l-0.1,2c0.9-0.5,1.9-0.7,2.9-0.7c3,0,5.6,1.6,5.6,4.9c0,3.4-2.9,5-5.9,5c-2.4,0-5.5-0.8-5.5-3.7
			c0-1.2,0.9-2.1,2.1-2.1c1.1,0,1.9,0.6,1.9,1.7c0,1-0.8,1.5-1.7,1.5c0.5,0.5,1.2,0.8,1.9,0.8c2.2,0,3.1-1.2,3.1-3.3
			c0-1.6-0.7-2.8-2.5-2.8c-0.7,0-1.4,0.2-2,0.9h-2.1L107.2,180.5z"/>
	</g>
	<g>
		<path class="st1" d="M19.6,162.2c11.9,18.7,28.9,37.3,56.8,45.8l-1.9-2.8c-27.3-10.8-43.1-29.3-54.2-46.7L19.6,162.2z"/>
	</g>
	<path class="st2" d="M89.8,7.3c-23.4,0-40.3,4.3-53.5,8.8c-13.2,4.6-28,5.9-28,5.9l2.1,36.6c4.8,4.3,4.7,6.2,5.4,14
		c0.7,7.7,4.8,76.9,4.8,76.9c1.1,24.7,0.5,35.8,9.7,44.9c8.4,8.4,21.5,9.6,21.5,9.6s10.5,0.3,19.9,2.8c8.5,2.3,15.7,11.6,15.7,11.6
		h5.8c0,0,7.2-9.3,15.6-11.6c9.4-2.6,19.9-2.8,19.9-2.8s13.1-1.2,21.5-9.6c9.2-9.2,8.6-20.2,9.7-44.9c0,0,4.2-69.2,4.8-76.9
		c0.7-8.1,0.5-9.7,5.4-14l2.2-36.6c0,0-14.8-1.3-28-5.9c-13.2-4.6-30.1-8.8-53.5-8.8H89.8z"/>
	<g>
		<path class="st1" d="M21.3,46.3l-0.6-1.8l1.3-0.4c0.5-0.2,0.7-0.6,0.5-1.1l-2.7-8.4c-0.2-0.5-0.6-0.7-1.1-0.6l-1.3,0.4l-0.6-1.8
			l13.7-4.4l1.7,5.2l-1.9,0.6c-0.9-3-2.2-3-4.9-2.2l-2,0.7l1.3,3.9l0.6-0.2c1.2-0.4,1.5-1.1,1.2-1.9l-0.3-0.8l1.7-0.5l2,6.2
			l-1.7,0.5L28,39c-0.3-0.9-0.9-1.3-2.1-0.9l-0.6,0.2l1.1,3.5c0.2,0.5,0.5,0.7,1.1,0.6l1.3-0.4l0.6,1.8L21.3,46.3z"/>
		<path class="st1" d="M36.4,40.1c0.3,1-0.3,2-1.3,2.2c-0.9,0.3-1.9-0.3-2.2-1.2c-0.3-1,0.3-2,1.2-2.2
			C35.1,38.6,36.1,39.2,36.4,40.1z"/>
		<path class="st1" d="M46.8,24.3l1.9-0.4l1.3,5.7L48,30c-0.5-2.2-2.1-3.7-4.5-3.2c-2.3,0.5-3.2,2.5-2.4,6.2c0.7,3.3,2,5.3,5,4.6
			c2.2-0.5,3-2.6,2.6-4.6l2-0.4c0.8,3.9-1.1,6.3-5,7.2c-4.4,1-8-0.8-9.1-5.8c-1-4.5,1.4-8.1,5.5-9c1.1-0.2,3.4-0.2,4.5,0.5
			L46.8,24.3z"/>
		<path class="st1" d="M56.5,35.8c0.2,1-0.5,1.9-1.5,2.1c-1,0.2-1.9-0.5-2.1-1.5c-0.2-1,0.5-1.9,1.5-2.1
			C55.4,34.1,56.4,34.8,56.5,35.8z"/>
		<path class="st1" d="M60.8,27.6l-0.6-5.5l14.3-1.5l0.6,5.5l-2,0.2c-0.2-2.2-1-3.5-3.5-3.2l1,9.6c0.1,0.5,0.4,0.8,0.9,0.8l1.3-0.1
			l0.2,1.9l-8.3,0.9l-0.2-1.9l1.3-0.1c0.5-0.1,0.8-0.4,0.7-0.9l-1-9.6c-2.5,0.3-3,1.7-2.7,3.9L60.8,27.6z"/>
		<path class="st1" d="M76.5,20.4l6.5-0.1l0,1.9l-0.6,0c-0.4,0-0.6,0.1-0.6,0.6c0,0.3,0.2,0.8,0.3,1.2l2.1,7.3h0l1.8-6.7l-0.4-1.3
			c-0.2-0.7-0.6-1.1-1.1-1.1l-0.5,0l0-1.9l6.9-0.1l0,1.9l-1,0c-0.4,0-0.6,0.1-0.6,0.6c0,0.3,0.2,0.8,0.3,1.2l2,7.1l0,0l1.7-7.1
			c0.1-0.4,0.2-0.9,0.2-1.3c0-0.3-0.4-0.5-0.6-0.5l-1,0l0-1.9l5.3-0.1l0,1.9l-0.3,0c-0.7,0-1.2,0.3-1.5,1.6l-2.6,10.9l-4,0.1l-1.7-6
			h0l-1.6,6.1l-4,0.1l-3-10.1c-0.5-1.7-1-2.2-1.6-2.2l-0.3,0L76.5,20.4z"/>
		<path class="st1" d="M100.9,23.1c0-0.5-0.2-0.9-0.8-0.9l-1.3-0.1l0.1-1.9l14.3,1l-0.4,5.5l-2-0.1c0.2-3.1-1-3.7-3.7-3.9l-2.1-0.2
			l-0.3,4.1l0.7,0c1.3,0.1,1.7-0.4,1.8-1.7l0-0.5l1.8,0.1l-0.5,6.5l-1.8-0.1l0-0.5c0.1-0.8-0.2-1.8-1-1.9l-1.3-0.1l-0.3,4.5l2.6,0.2
			c2.3,0.2,3.5-0.2,3.7-3.7l2,0.1l-0.4,5.8l-14.3-1l0.1-1.9l1.3,0.1c0.5,0,0.9-0.3,0.9-0.8L100.9,23.1z"/>
		<path class="st1" d="M126.8,33.1L126.8,33.1l1.1-7c0.1-0.5-0.2-0.9-0.7-1l-1.3-0.2l0.3-1.9l6.6,1l-0.3,1.9l-1.3-0.2
			c-0.5-0.1-0.9,0.2-1,0.7l-1.7,11.4l-4.3-0.7l-4.3-11.4l0,0l-1.2,7.8c-0.1,0.5,0.2,0.9,0.7,1l1.3,0.2l-0.3,1.9l-6.6-1l0.3-1.9
			l1.3,0.2c0.5,0.1,0.9-0.2,1-0.7l1.3-8.7c0.1-0.5-0.2-0.9-0.7-1l-1.3-0.2l0.3-1.9l6.9,1L126.8,33.1z"/>
		<path class="st1" d="M133,29.7l1.2-5.3l14,3.2l-1.2,5.3l-2-0.5c0.5-2.1,0.2-3.6-2.2-4.2l-2.2,9.4c-0.1,0.5,0.1,0.9,0.6,1l1.3,0.3
			l-0.4,1.9l-8.2-1.9l0.4-1.8l1.3,0.3c0.5,0.1,0.9-0.1,1-0.7l2.2-9.4c-2.4-0.6-3.4,0.6-3.9,2.8L133,29.7z"/>
		<path class="st1" d="M151.2,31.3c0.2-0.5,0-0.9-0.5-1.1l-1.3-0.4L150,28l13.7,4.3l-1.6,5.2l-1.9-0.6c0.9-3-0.1-3.8-2.7-4.6l-2-0.6
			l-1.2,3.9l0.6,0.2c1.2,0.4,1.8,0,2.2-1.2l0.1-0.5l1.7,0.5l-2,6.2l-1.7-0.5l0.2-0.5c0.2-0.8,0.2-1.8-0.5-2l-1.2-0.4l-1.3,4.3
			l2.5,0.8c2.2,0.7,3.5,0.6,4.5-2.7l1.9,0.6l-1.8,5.6l-13.7-4.3l0.6-1.8l1.3,0.4c0.5,0.2,0.9-0.1,1.1-0.6L151.2,31.3z"/>
	</g>
	<g>
		<path class="st2" d="M43,120.7c-0.4-0.2-0.9-0.5-1.5-1c0.7,0.9,1.4,1.8,2.2,2.7c-0.2-0.2-0.3-0.5-0.3-0.6
			C43.4,121.8,43.1,121,43,120.7z"/>
		<path class="st3" d="M137.8,59.8l12.9-11.4l-3.3-0.7l-11.5,10.2C136.2,58.3,136.9,58.9,137.8,59.8z"/>
		<path class="st3" d="M96.8,162.6c-0.1,0.8-0.3,1.8-0.4,2.6c11,5,23.6,9.4,38,12.9c0.3-0.7,0.7-1.5,1-2.2
			C120.7,172.3,107.9,167.7,96.8,162.6z"/>
		<path class="st3" d="M83,155.4c-4.4-2.5-8.5-5.2-12.3-7.9c-0.2,0.6-0.6,1.3-1.2,2c0,0-0.1,0.1-0.1,0.2c3.7,2.6,7.6,5.1,11.8,7.5
			C81.5,156.6,82.1,156,83,155.4z"/>
		<path class="st3" d="M144.3,137l-0.2-0.2c-0.8,0.4-1.7,0.7-1.7,0.4c-0.1,0-0.1,0-0.2,0c0.4,3.9,1.3,19.7-6.8,38.7
			c0.5,0.1,0.9,0.2,1.4,0.4l-0.8,2.2c-0.5-0.1-1-0.3-1.6-0.4c-3.8,8.3-9.4,17.2-17.6,25.9l1.9,1.8c28.5-30.3,26.7-62.9,26-69.2
			c-0.1,0.1-0.2,0.2-0.3,0.3L144.3,137z"/>
		<path class="st3" d="M136.8,176.2c-0.5-0.1-0.9-0.2-1.4-0.4c-0.3,0.7-0.6,1.5-1,2.2c0.5,0.1,1,0.3,1.6,0.4L136.8,176.2z"/>
		<path class="st3" d="M161.9,117.9c-5.1,4.5-11.2,9.9-18.9,16.7c0.3,0,0.6,0.1,0.9,0.2l1.1,0.2l0,1.1c0,0.1-0.1,0.2-0.3,0.3
			c0,0.1,0,0.1,0,0.2c6.7-5.9,12.2-10.8,16.9-14.9L161.9,117.9z"/>
		<path class="st3" d="M144.1,136.8l0.2,0.2l0.2-0.2c0.1-0.1,0.2-0.2,0.3-0.3c0-0.1,0-0.2,0-0.2
			C144.6,136.5,144.4,136.7,144.1,136.8z"/>
		<path class="st3" d="M142.2,137.2c-0.1-0.6-0.1-0.9-0.1-0.9l1.2-0.4l-0.8-0.9l0.2-0.2c0.1-0.1,0.2-0.2,0.3-0.2
			c-7.1-1.1-13.7-2.9-19.7-5.2c-0.4,0.9-0.8,1.6-1.2,2.3C128.3,134.1,134.9,136,142.2,137.2z"/>
		<path class="st3" d="M66.1,65.8c-3.2-9-4.6-15.8-5-17.8c-0.1,0.2-0.3,0.3-0.4,0.5l-2-1.7c0.1-0.1,0.2-0.3,0.4-0.4
			c-20.6,0.6-36,5.7-47.1,11.9v3c10.8-6.2,26-11.6,46.7-12.2c0.5,2.7,2,9.7,5.3,18.7C64.6,67.1,65.4,66.4,66.1,65.8z"/>
		<path class="st3" d="M60.7,48.5c0.1-0.2,0.3-0.3,0.4-0.5c-0.1-0.3-0.1-0.5-0.1-0.6l-0.2-1.1l-1.2,0c-0.2,0-0.4,0-0.6,0
			c-0.1,0.1-0.2,0.3-0.4,0.4L60.7,48.5z"/>
		<path class="st3" d="M142.1,136.3c0,0,0.1,0.3,0.1,0.9c0.1,0,0.1,0,0.2,0c0,0.3,0.9,0,1.7-0.4l-0.8-0.9L142.1,136.3z"/>
		<path class="st3" d="M142.6,135.1l0.8,0.9l1.3-0.4c0,0,0.1,0.3,0.1,0.9c0.2-0.1,0.3-0.2,0.3-0.3l0-1.1l-1.1-0.2
			c-0.3,0-0.6-0.1-0.9-0.2c-0.1,0.1-0.2,0.2-0.3,0.2L142.6,135.1z"/>
		<path class="st3" d="M143.3,135.9l0.8,0.9c0.3-0.1,0.5-0.3,0.7-0.4c-0.1-0.5-0.1-0.8-0.1-0.9L143.3,135.9z"/>
		<path class="st3" d="M44.4,123.2c-0.2-0.3-0.4-0.5-0.6-0.8C43.9,122.7,44.1,123,44.4,123.2z"/>
		<path class="st0" d="M44.4,123.2c-0.2-0.3-0.4-0.5-0.6-0.8C43.9,122.7,44.1,123,44.4,123.2z"/>
		<path class="st3" d="M41.6,119.7c-0.8-1-1.5-2-2.2-2.9C40,118.2,40.8,119.1,41.6,119.7z"/>
		<path class="st3" d="M44.4,123.2c-0.3-0.3-0.5-0.5-0.6-0.8c-0.7-0.9-1.5-1.8-2.2-2.7c-0.8-1-1.5-2-2.2-2.9c-2-2.7-3.8-5.4-5.4-7.9
			C18.3,84,17.5,65.6,17.4,65.4l-3.3-3.3c0.1,0.9,1.5,22.6,17.4,48c5.9,9.4,14,19.9,25.6,30c0.2-0.9,0.5-1.6,0.7-2.1l0.1-0.2
			c0.1-0.1,0.1-0.2,0.2-0.4C52.8,132.7,48.3,127.9,44.4,123.2z"/>
	</g>
	<path class="st1" d="M42.6,83.5c-0.5-0.4-1.9-1.9-2.2-2.4c-0.1-0.2-0.2-0.3-0.1-0.3c0,0,0,0,0,0.1l0.1,0.1c0,0,0.6-0.2,1.2,0.2
		c0.6,0.4,2.2,1,2.4-0.3c0,0-1,0.6-1.9-0.5c-0.7-0.9-1.1-1.1-1.7-1.2c0.3-0.4,0.5-1.3,1.5-2.1c1-0.8,2.3-2.1,2.3-2.1
		c3.6-3.8,7.4-4.1,7.4-4.1c2.3-0.2,2.9,1.6,4.3,6.6c1.4,5.1,3.6,7.9,3.6,7.9s0.9-1.8,1.8-3.1c0.9-1.3,3-3.3,3-3.5
		c0-0.2,0.1-0.7-3.1-3.7c-3.2-3.1-3.7-5.7-4.3-8c-0.6-2.3-2.4-1.4-3.7-1.3c-1.3,0.1-1.6-0.2-3.2,0.2c-1.6,0.4-4.1,4.1-4.7,4.7
		c-0.5,0.5-3.4,2.9-6.3,4.3c-2.9,1.5-3.7,3.9-3.5,4.7c0.1,0.8,1.7,4.3,1.7,4.7c0,0.4,0,0.7,0,0.7c0,2.1,1,4.6,1,4.6
		c0.6,0.2,2.6-2.1,2.6-2.1C43.3,84.8,43.1,83.9,42.6,83.5z M128.4,121.7c6.6-2.2,0.8-6.7,3.6-11.4c3.7-6.3,8-2,8.1-12.2
		c0-2.4-0.5-4.4,2.3-7.5c4-4.5-0.8-14.4-0.8-14.4s1.7,8.7-3.1,11.5c-3.2,1.9-3.9,4.6-4.2,7.4c-0.3,2.9-0.4,3-0.4,3s0.2-1.7-0.2-5.1
		c-0.4-3.5-0.9-4.4,0-8.5c0.7-3.4,3.2-6.7,5.1-12.5c1.9-5.8-5.3-11.8-5.3-11.8c4.3,5.7,1.7,12.7-2.1,15.6c-3.8,2.9-4,7.3-4,7.3
		s-1.5-3.5,3-10.5c4.9-7.6-3-13.1-4.5-14.8c-1.5-1.7,2.5-2.3,2.4-6.1c-0.1-3.8-4.8-5.7-4.8-5.7c0.8,1.1,2.3,4.3,2.3,5.5
		c0.1,3.3-1.7,3-1.7,3c-1.8-0.1-2-2.2-2-2.2s-1.2,1.7,2.7,7.1c3.9,5.4-0.7,13-0.7,13c-0.4-7.1-2.6-9.5-2.6-9.5s1.4,3.1-2.3,12.6
		c-2.8,7.2-0.3,8.8,2.2,11.9c8.6,10.7,7,15.7,6,16.4c-0.9,0.8-1.9,0.6-2.8-0.1c-2.8-2-0.9-7.7-1.7-10.5c-0.8-2.6-2.7-3.7-4.2-4.1
		c-0.1,0-0.1,0-0.2-0.1c-1-0.3-1.7-0.3-1.7-0.3c0.6,0.5,1.1,1,1.5,1.5c0.4,0.5,0.7,1.1,0.8,1.7c0,0.2,0.1,0.3,0.1,0.5
		c0.2,1.3,0.1,3-0.2,5.7c-0.6,5.8-0.9,6.7,3.4,10.6c5.9,5.4,1.6,11.2-0.9,11.8l0-0.9c-1.4-6.4-9.2-8.7-12.8-9.8
		c-4.8-1.5-13.8-15.6-13.8-15.6c-1.6-2.7-0.9-4.5-0.9-4.5c0.7,2.1,2.8,3,2.8,3c1.7,0.8,3.6-0.6,6.2-0.6c2.5,0,2.4,3.7,2.4,3.7
		l0.5-2.3c1.1-5.3-4.3-3.7-7-4.4c-2.7-0.7,0.5-4.3,0.5-4.3c3.2,4,6.6,1.5,6.6,1.5s-3.1-0.3-3.9-3.4c-0.8-3.2,2.2-1.7,2.2-1.7
		c2.8,0.8,3.2,3.2,3.2,3.2c1.7,5.2,6.7,2.9,6.7,2.9c-4.3,0.1-4.1-4.7-4.1-4.7c-0.8-5.2-1.7-5.2-3.3-6.4c-1.7-1.2-1.1-4.3,1.4-3.8
		c1.5,0.1,2.7,1,2.8,2.9c0.3,3.1,3.2,3,3.2,3c-1.7-1-0.9-5.2-0.9-5.2c0.3-3.9-2-4.3-3.1-4.6c-5.7-1.3-3.3-5.9-3.3-5.9
		c3.4,4.8,8.1,0.8,8.1,0.8c-3.2,1.1-3.7-0.1-4.5-3.5c-0.6-2.9-3.3-4.4-5.2-5c0.2-0.1,0.4-0.3,0.6-0.4c5.6-4.6,7.7,1,7.7,1
		c0.1-7.6-6.6-6.2-9.9-5c-3.3,1.1-4.1-5.2-10.2-3.5c-0.1,0-0.1,0-0.2,0.1c-0.7-1.5-1.4-2.6-2-2.2c-0.5,0.4-1.2,2-1.9,3.9
		c-0.2,0.1-0.5,0.2-0.7,0.3c-0.5,0.2-1.1,0.4-1.6,0.6c-0.3-0.9-1-2.6-1.4-2.3c-0.5,0.3-1.3,3.1-1.5,4.1c-2.7,2-4.6,4.3-4.6,4.3
		c-0.8,1.5-1.4,3.2-2.9,4.7c-1.4,1.5-5.4,5.3-5.8,5.6c-0.7,0.6-1.1,0.7-2.3,1.7c-1.1,0.9-0.1,2.2,0.5,3.8c0.6,1.6,1.8,2.8,3.2,2.4
		c1.7-0.4,1.3-0.9,2.7-1.7c1.5-0.9,2.9-0.7,6.4-0.7c2.8,0,7.6-2.4,9.1-4c1.6-1.6,2.2-6.3,2.2-6.3s-0.1,1.1-0.3,2.6
		c-0.2,1.7-0.2,3.1-1.3,4.7c-0.8,1.2-6.5,4.2-8,4.7c-1.5,0.5-5.6-0.2-6.7,0.1c-1.2,0.3-2.6,1.9-2.6,1.9l-7.4,4.7
		c-6.2,5.6-5.7,9.6-5.7,9.6l1.2-0.5c-2,3.4-6.6,2.8-9.3,2.8c-2.6,0-7.4-0.4-7.4-0.4c-3.5,1.9-3.1,2.9-2.6,4c0.5,1.2,0.1,4.8,0.1,4.8
		s-1,5.6-1.4,11.2c-0.5,5.7,2.7,6.1,3.5,6.8c0.8,0.8,0.6,1.3,1,2.2c0.4,0.9,0.9,0.2,1.7,0.6c0.9,0.4,2.8,2,2.8,2s0.8-0.3,1.2-2
		c0.4-1.7-0.8-5.3-0.8-5.3s0,0-0.6,0.4c-0.6,0.4-0.9,0.4-1.9,0.2c-1-0.2-1.1-1.1-1.3-2.8c0-0.4-0.1-0.7-0.2-1
		c0.4-0.2,0.7-0.4,1.1-0.7c1.2-0.8,2,0.3,2,0.3c-0.2-1.5-1.3-1.6-2.3-1.3c0.2-0.3,0.4-0.6,0.6-0.9c0.8-1.2,1.9-0.2,1.9-0.2
		c-1.4-2.8-3.7,0.4-3.7,0.4c-0.4,0.3-0.7,0.3-0.9,0.3c-0.1-0.1-0.1-0.1-0.2-0.2c-0.7-0.9-0.6-2.3-0.6-4.4c0-2.1,1-5.9,1.7-7.1
		c0.7-1.2,3.2-2.2,3.2-2.2s6.6-0.7,10.5,0.8c3.9,1.5,6.5,2.2,6.5,2.2c14.8,2.7,15.2-6.9,15.2-6.9c2.1,13.8-19.9,8.9-19.9,8.9
		c1.7,4.5,3.9,6.5,3.9,6.5c11.5,15.4,18.2,14.6,18.2,14.6c3.6-0.2,4.2,0.8,4.2,0.8c0.2-0.3,0.4-0.6,0.5-1l0,0c1-9.2,8.4-8.1,8.4-8.1
		c-11.3,4.9-5,16.3-5,16.3c2.1,6.8,4.1,10.1,5.2,12.7c0.8,1.9-0.4,3.1-1.2,3.6c-0.2,0.2-0.3,0.4-0.6,0.8c-2.4,3.1-10.3,9.5-10.3,9.5
		c-3.8,2-2.5,4.5-2.1,6.5c0.4,2,2.4,4.1,2.4,4.1l0.1,1.4c0,2.5,3,5.1,3,5.1s2.2-3.3,3.3-5.9c1.1-2.6,0.2-2.4-0.6-2.4
		c-0.7,0-1.5-0.1-2.7-0.5c-1.2-0.4-1.2-1-0.3-1.9c0.2-0.1,0.6-0.3,1-0.2c0.7,0.1,2.5,0,2.1-1.2c0,0-0.7,0.9-1.9,0.3
		c-0.1,0-0.1,0-0.2-0.1c0.1-0.1,0.5-0.7,1.4-0.8c0.9-0.1,3-0.8,2.3-2.3c0,0-0.6,1.4-2.2,1c-0.8-0.2-1.3-0.3-1.7-0.2
		c0.2-0.6,0.4-1.2,0.6-2c0.6-1.7,6.7-5.8,10.6-7.7c3.9-1.8,3-4.5,3-4.5c0.6-8.1,4.7-10.2,4.7-10.2c7.3-3.1,9.6-2.9,11.9-8.5
		c0.6-1.4,1-2.8,1.1-4c-0.1-0.1,0,0,0,0s1.2-1,5.2,0.8c6.3,2.9,14,0.2,12.1-5.3c-3.6-10.4,3-11.7,3-11.7c-7-2.1-8.3,5.1-6.8,10.2
		c1.2,4-3.8,4.8-5.4,4.8c-4.2,0.2-5.2-0.2-5.2-0.2S126.1,122.5,128.4,121.7z M73.5,68.5c-0.4,0.2-1-0.5-0.6-0.8
		c0.4-0.2,1.1-0.5,1.1-0.5S74.3,68.1,73.5,68.5z M89,57.9c0,0.6-0.2,2-1,2.3c-1.5,0.6-2.3-0.1-2.7-0.6c-1.5,0.9-3,1.8-3,1.8
		c1.2-1.5,4.3-4.2,5.7-4.7c1-0.4,2.5,1.1,2.5,1.1S89.7,57.8,89,57.9z M91.6,50.2c-0.6,0.4-0.5-0.3-0.5-0.3s0.5-2.2,1.2-2.5
		c0.4-0.2,1.6,3.6,1.6,3.6S92.8,49.3,91.6,50.2z M74.1,141.6c3.7,0.2,12.8,2.3,14.7,2.9c1.9,0.6,3.2-2,4.3-3.1
		c1.1-1.1,0.1-3-1.5-6.7c-1.7-3.7-2.9-8.9-2.9-8.9s-1.7-1.2-3.2-1.1c-1.5,0.1-2.3-0.5-2.7-0.3c-1.1,0.5-0.2,3.4,0,5.2
		c0.2,1.8,1.9,6.2,1.7,7.4c-0.2,1.2-1.2,1.6-2.3,1.9c-1.1,0.3-7.2-0.7-7.2-0.7s-5.9-1.3-9.5-1.6c-3.5-0.4-4.3,2.1-4.8,2.9
		c-0.4,0.9-0.8,3.3-1,4.1c-0.1,0.8-0.4,1-1.7,3.3c-1.3,2.4-0.8,3.1-0.9,3.7c0,0.6,0.2,0.7,0.7,1.1c0.6,0.3,1-0.1,3.9-1.5
		c2.9-1.4,4-2,4-2.5c0-0.5-0.2-0.8-0.4-1c-0.2-0.2-1-1.1-1.3-1.7c0-0.1,0-0.2,0-0.3c0.5,0.1,1,0.3,1.5,0.4c2,0.5,1.4,2.3,1.4,2.3
		c1.8-1.9,0-3.3-1.4-4c0.4-0.1,0.9-0.2,1.4-0.3c1.5-0.4,1.9,1.1,1.9,1.1c0.5-2.5-2.3-2.3-3.2-2.2c0.2-0.2,0.5-0.4,0.8-0.6
		C67.1,140.9,70.4,141.5,74.1,141.6z"/>
	<g>
		<path class="st3" d="M94,17.3c3.4-2.5,7.4-5.4,12.1-8.8l0.2-0.1l-1.6-2.1l-0.2,0.1c-6.1,4.4-11,8-15,10.9c0.8,0,1.5,0,2.3,0
			C92.5,17.3,93.3,17.3,94,17.3z"/>
		<path class="st3" d="M59.1,46.4c0.2,0,0.4,0,0.6,0l1.2,0l0.2,1.1c0,0,0,0.2,0.1,0.6c3.3-3.9,5.4-6.6,7-8.6
			c-1.2,0.1-2.5,0.3-3.7,0.4C63.1,41.6,61.4,43.7,59.1,46.4z"/>
	</g>
</g>
</svg>
