<svg xmlns="http://www.w3.org/2000/svg" xmlns:xlink="http://www.w3.org/1999/xlink" viewBox="0 0 93.3 93.3"><defs><linearGradient id="a" x1="-.1" y1="-377.26" x2="81.7" y2="-377.26" gradientTransform="matrix(1 0 0 -1 .1 -322.11)" gradientUnits="userSpaceOnUse"><stop offset="0" stop-color="#787878"/><stop offset=".5" stop-color="#9f9f9f"/><stop offset=".99" stop-color="#787878"/></linearGradient><linearGradient id="b" x1="-.22" y1="-385.86" x2="75.8" y2="-385.86" xlink:href="#a"/><linearGradient id="c" x1="-.1" y1="-398.06" x2="75.8" y2="-398.06" xlink:href="#a"/><linearGradient id="d" x1="-.1" y1="-401.56" x2="70.4" y2="-401.56" xlink:href="#a"/><linearGradient id="e" x1="-.04" y1="-393.61" x2="70.4" y2="-393.61" xlink:href="#a"/><linearGradient id="f" x1="-.1" y1="-398.71" x2="70.4" y2="-398.71" xlink:href="#a"/><linearGradient id="g" x1="-.1" y1="-406.06" x2="70.4" y2="-406.06" xlink:href="#a"/><linearGradient id="h" x1="-.1" y1="-408.81" x2="70.4" y2="-408.81" xlink:href="#a"/><linearGradient id="i" x1="-.1" y1="-366.76" x2="87.4" y2="-366.76" xlink:href="#a"/><linearGradient id="j" x1="-.1" y1="-357.01" x2="92.4" y2="-357.01" xlink:href="#a"/><linearGradient id="k" x1="-.1" y1="-348.66" x2="93.1" y2="-348.66" xlink:href="#a"/><linearGradient id="l" x1="5.9" y1="-342.21" x2="87.9" y2="-342.21" xlink:href="#a"/><linearGradient id="m" x1="14.2" y1="-337.76" x2="74.8" y2="-337.76" xlink:href="#a"/><linearGradient id="n" x1="22.75" y1="-333.31" x2="63.35" y2="-333.31" xlink:href="#a"/><linearGradient id="o" x1="30.95" y1="-328.86" x2="53.85" y2="-328.86" xlink:href="#a"/></defs><path d="M62 77.3a2.14 2.14 0 0 0-2.1 1.5 23.49 23.49 0 0 0-1.3 5.6 1.44 1.44 0 0 0 1.4 1.51h.23a2.39 2.39 0 0 0 2.2-1.5 46.5 46.5 0 0 0 1.2-5.6 1.26 1.26 0 0 0-.93-1.52 1.18 1.18 0 0 0-.7.01z" fill="#787878"/><path d="M0 93.3h93.3V0H0zm32.6-26.9c2.6 0 3.4 1.4 3.5 2.2v.2c0 1.3-1.1 3.1-3.9 3.1a4 4 0 0 1-2.9-.9 2.25 2.25 0 0 1-.6-1.5 3.7 3.7 0 0 1 3.9-3.1zm-7.8 9.3L23 83.6l-.1.4-1.1 5.9h-6l-1.2-3.1-.2-.4-2.7-7.2-.3-.8a3.75 3.75 0 0 1-.2 1.1c-.6 2.9-1.1 5.7-1.7 8.4 0 .3-.3.5-.3.7-.1.4-.2.8-.3 1.3H2.6v-.1l1.8-8.1v-.1l.6-2.8v-.1l1.3-6.4.2-.6.7-2.8.4-1.7h6.2l.6 1.7.1.2 2.2 6 .8 2.2.5 1.3.3-1.3.7-2.9v-.1l1.6-7.2h6.1m6.2 13.5l-2 9.3h-6.1l1.6-7.1v-.1l1.8-7.8v-.1l.4-1.6h6zm11.6 9.3l-2.6-8.7-2 8.7h-6.1l2.3-10.4v-.1l1.4-6.1.1-.7 1-4.8v-.2l.1-.4h6.4l-.9 3.9v.2l-1.7 7.6c.6-.6 1.5-1.8 2.3-2.6l2.6-3.1h6.8l-6.1 7.5 2.6 9.2zm22.3-1.5c-2.9 2.3-7.5 2.4-10.4 1.6-4.4-1.1-5.1-5.5-4.5-8.8.4-1.3 1.7-8.7 11-8.7 5 0 7.8 3.2 7.8 6.5 0 3.5-1.2 7.2-3.9 9.4zm22.9-11.3L87 89.9h-6.1l2.1-9.5c.2-1.5-.5-1.8-1-2a2.52 2.52 0 0 0-3 1.86 2 2 0 0 0 0 .24l-2.1 9.4h-6.2l3.7-16.5h6.1c-.1.9-.4 1.7-.5 2.3a7.41 7.41 0 0 1 7.5-2.7 3.51 3.51 0 0 1 2.2 4.1z" fill="#787878"/><path d="M7.6 67.2h4.8c31.8-10.4 52.4-20.3 69.4-28C69.2 39.5 0 66 0 66v5.1c2.5-.7 4.9-1.5 7.2-2.2z" fill="url(#a)"/><path d="M25.6 72.3c1.2-.4 2.4-.8 3.7-1.3a2 2 0 0 1-.5-1.5 3.7 3.7 0 0 1 3.9-3.1c2.4 0 3.3 1.4 3.4 2.2v.1c.8-.3 1.6-.6 2.5-.9l.1-.6h1.8c12.8-4.5 26-9.8 35.5-14.8-10.3 2-29.8 5.7-61.6 16.5l.1.2 2.2 6c.7-.2 1.5-.4 2.3-.7v-.1l1.6-7.2h6.1" fill="url(#b)"/><path d="M6.3 72.6l.2-.9c-2.1.8-4.3 1.6-6.5 2.4v6.1s1.9-.5 5-1.5z" fill="url(#c)"/><path d="M28.2 74.9c-1.1.2-2.3.5-3.4.8L23 83.6l-.1.4c1.1-.4 2.3-.8 3.5-1.2v-.1z" fill="url(#d)"/><path d="M42.9 77c.6-.2 1.3-.5 1.9-.7l2.6-3.1h5.9c7.3-2.8 13.5-5.3 17.2-7.2 0 0-11.7 2-26.3 5.1z" fill="url(#e)"/><path d="M37.6 72.6c-1 .2-1.9.4-3 .6l-1.7 7.3v.1c1.1-.4 2.2-.8 3.2-1.1z" fill="url(#f)"/><path d="M9.2 88.6c1.6-.5 3.5-1.2 5.4-1.8l-.2-.4-2.7-7.1c-.2.1-.3.1-.5.2" fill="url(#g)"/><path d="M2.6 89.9l1.8-8.2c-1.5.5-3 1.1-4.4 1.6v8.4s2-.7 5.4-1.8z" fill="url(#h)"/><path d="M0 62.6v-3.7s50.4-23.5 87.5-32.2C67.6 36.4 36.8 50.9 0 62.6z" fill="url(#i)"/><path d="M0 55.1v-2.2s53.8-27.2 92.5-38.2C85.6 18.4 41 42.1 0 55.1z" fill="url(#j)"/><path d="M0 48.5v-.6S57.8 16.2 93.2 4.6v.8A619.12 619.12 0 0 1 0 48.5z" fill="url(#k)"/><path d="M6 40.2S58.8 8.8 82.5 0h5.6S34.6 30.3 6 40.2z" fill="url(#l)"/><path d="M14.3 31.3S52.7 6.6 67.4 0h7.5S34.4 23.6 14.3 31.3z" fill="url(#m)"/><path d="M63.4 0H57S26.8 18.6 22.8 22.4C36.8 15 60.3 2.9 63.4 0z" fill="url(#n)"/><path d="M53.9 0h-4S33.5 11.3 31 13.5C44.5 5.7 53.9 0 53.9 0z" fill="url(#o)"/></svg>
