<svg id="Laag_1" xmlns="http://www.w3.org/2000/svg" viewBox="0 0 180 180.2"><style>.st0{fill:#787878}</style><path class="st0" d="M46.3 102.6c1.8 1.1 3.8 1.8 6.1 2.1 2.3.3 4.5.1 7-.5 2.4-.6 4.5-1.6 6.3-3 1.8-1.4 3.1-3 4.2-4.8s1.6-4 1.9-6.2c.2-2.2 0-4.6-.6-7-.6-2.4-1.6-4.5-2.9-6.4-1.3-1.8-2.9-3.4-4.7-4.4-1.8-1.1-3.8-1.8-6.1-2.1-2.3-.3-4.5-.1-7 .5-2.4.6-4.5 1.6-6.3 3-1.8 1.4-3.1 3-4.2 4.8s-1.6 4-1.9 6.2c-.2 2.2 0 4.6.6 7 .6 2.4 1.6 4.5 2.9 6.4 1.3 1.8 2.8 3.3 4.7 4.4zM145.8 99.3c-.8.5-1.5 1-2 1.8-.5.7-.8 1.5-1.1 2.2-.2.9-.1 1.8.1 2.9.3 1.2.8 2.2 1.4 2.8.6.7 1.3 1.2 2.1 1.6.8.3 1.7.5 2.7.4s2-.2 3.1-.5l2.4-.6-3.3-12.5-2.7.7c-.9.3-1.9.6-2.7 1.2z"/><path class="st0" d="M66.7 3.4C18.7 16.2-9.8 65.6 3.1 113.6s62.2 76.5 110.2 63.6S189.8 115 176.9 67C164.1 19 114.7-9.5 66.7 3.4zM25.9 83.2c.4-3.7 1.7-7.2 3.5-10.1 1.9-3.1 4.3-5.6 7.4-7.9 3-2.2 6.6-3.8 10.7-4.9 4.1-1.1 8-1.4 11.7-1.1 3.7.3 7.2 1.4 10.4 3.1s5.8 4 8.1 7 4 6.6 5.2 10.7 1.4 8.1.9 11.9c-.4 3.7-1.7 7.2-3.5 10.1-1.9 3.1-4.3 5.6-7.4 7.9-3 2.2-6.6 3.8-10.7 4.9-4.1 1.1-8 1.4-11.7 1.1-3.7-.3-7.2-1.4-10.4-3.1-3.2-1.7-5.8-4-8.1-7s-4-6.6-5.2-10.7c-1.1-4.2-1.5-8.2-.9-11.9zm34.8 56.4l-4.6 1.2-4-15H52l-5.2 17.4-6.1 1.6L35 124l4.6-1.2 3.9 14.6h.1l5-17 6.3-1.7 5.8 20.9zm17.3-4.7l-14.8 4-1.1-4.3 10.1-2.7-1.1-4.3L62 130l-1.2-4.3 9.1-2.4-1-3.9-9.7 2.6-1.1-4.3 14.3-3.8 5.6 21zm20.3-5.4l-4.6 1.2-2.7-9.9-5.8 12.2-6.5 1.7 7-13.9-12-7.2 6.1-1.6 10.4 6.5-2.3-8.7 4.6-1.2 5.8 20.9zm23.2-6.2l-4.6 1.2-4-15h-.1l-5.2 17.4-6.1 1.6-5.6-21 4.6-1.2 3.9 14.6h.1l5-17 6.3-1.7 5.7 21.1zm17.3-4.7l-14.8 4-1.1-4.3 10.1-2.7-1.1-4.3-9.1 2.4-1.2-4.3 9.1-2.4-1-3.9-9.7 2.6-1.1-4.3 14.3-3.8 5.6 21zm21.5-5.7l-7.5 2c-1.5.4-3.1.6-4.6.5-1.6-.1-3-.4-4.3-1-1.3-.6-2.4-1.4-3.5-2.6-1-1.1-1.7-2.5-2.2-4.3-.5-1.9-.7-3.7-.4-5.2s.9-2.8 1.8-4c.9-1.2 2-2.1 3.5-2.9 1.4-.8 2.9-1.4 4.7-1.9l7-1.9 5.5 21.3zm-6.2-24.1l-11.4 3.1-10.7-40-.2.1-3 43.4-8.7 2.3-23.7-36.2-.2.1 10.7 39.8-11.5 3.1-14-52 17.3-4.6 21.1 30.7.2-.1 3-37.1 17.2-4.6 13.9 52z"/></svg>