<svg xmlns="http://www.w3.org/2000/svg" xmlns:xlink="http://www.w3.org/1999/xlink" viewBox="0 0 180 42.2"><defs><path id="a" d="M28.6 33.9H180v8.4H28.6z"/></defs><use xlink:href="#a" overflow="visible" fill-rule="evenodd" clip-rule="evenodd" fill="#787878"/><defs><path id="b" d="M57.1 12v2.1c0 6.6-5.4 12-12.1 12H12.1c-.8 0-1.6-.1-2.4-.2v16.4H0V12C0 5.4 5.4 0 12.1 0H45c6.7 0 12.1 5.4 12.1 12zm-9.8.7c0-2.1-1.9-3.9-4.3-3.9H14c-2.4 0-4.3 1.7-4.3 3.9v.7c0 2.1 1.9 3.8 4.3 3.8h29c2.4 0 4.3-1.7 4.3-3.8v-.7z"/></defs><use xlink:href="#b" overflow="visible" fill-rule="evenodd" clip-rule="evenodd" fill="#787878"/><g><defs><path id="c" d="M110.9 12.7c0-2.1-1.9-3.9-4.3-3.9h-29c-2.4 0-4.3 1.7-4.3 3.9v.7c0 2.1 1.9 3.8 4.3 3.8h29c2.4 0 4.3-1.7 4.3-3.8v-.7zm9.7 1.4c0 6.6-5.4 12-12.1 12H75.7c-6.7 0-12.1-5.4-12.1-12V12c0-6.6 5.4-12 12.1-12h32.8c6.7 0 12.1 5.4 12.1 12v2.1z"/></defs><use xlink:href="#c" overflow="visible" fill-rule="evenodd" clip-rule="evenodd" fill="#787878"/></g><g><defs><path id="d" d="M170.2 12.7c0-2.1-1.6-3.9-3.5-3.9h-25.4c-1.9 0-3.5 1.7-3.5 3.9v13.2H128V12c0-6.6 5.4-12 12.1-12h27.8c6.7 0 12.1 5.4 12.1 12v13.9h-9.8V12.7z"/></defs><use xlink:href="#d" overflow="visible" fill-rule="evenodd" clip-rule="evenodd" fill="#787878"/></g></svg>
