<svg version="1.1" id="Laag_1" xmlns="http://www.w3.org/2000/svg" xmlns:xlink="http://www.w3.org/1999/xlink" x="0px" y="0px"
	 viewBox="0 0 180 71.1" style="enable-background:new 0 0 180 71.1;" xml:space="preserve">
<style type="text/css">
	.st0{fill:#787878;}
</style>
<path class="st0" d="M66.5,47.3l5.4-5.4l0.4-0.4l6-6l-6-6L72,29.2l-5.4-5.4l-0.4-0.4L60.7,18l-0.4-0.4l-5.4-5.4l-0.4-0.4l-5.4-5.4
	L48.8,6l-6-6l-6,6l-0.4,0.4L31,11.8l-0.4,0.4l-5.4,5.4L24.8,18l-5.4,5.4L19,23.8l-5.4,5.4l-0.4,0.4l-6,6l6,6l0.4,0.4l5.4,5.4
	l0.4,0.4l5.4,5.4l0.4,0.4l5.4,5.4l0.4,0.4l5.4,5.4l0.4,0.4l6,6l6-6l0.4-0.4l5.4-5.4l0.4-0.4l5.4-5.4l0.4-0.4l5.4-5.4L66.5,47.3z
	 M77.4,35.5l-5.6,5.6l-4-4l0.9-0.9l-1.6-1.6l4.7-4.7L77.4,35.5z M71.6,29.7l-4.7,4.7l-3.1-3.1l0.8-0.8l2.1,2.1l-0.5-6.8l-1.9-0.1
	l1.6-1.6L71.6,29.7z M39.2,50.9C39.3,50.9,39.3,50.9,39.2,50.9l0.1,0c2.2,0.1,4.4,0,6.5-0.4c0,0,0.1,0,0.1,0l2.5,2.5l-5.6,5.6
	L37.2,53L39.2,50.9z M37,52.7l-2.6-2.6c1.4,0.4,2.9,0.6,4.4,0.7L37,52.7z M46.3,50.4c2.6-0.5,5.1-1.5,7.4-2.8l-5.1,5.1L46.3,50.4z
	 M41.6,49.7c-4,0.1-8-0.9-11.5-2.7c-1.6-0.9-3.1-1.9-4.4-3.1L23.2,44l-0.3,0l-6.2-6.2l3.5-3.5l0.5-0.5l3.4,3.4l-2.1,2.1l6.4-0.5
	l0.6-6.5L28,33.2l-1.1,1.1L25.6,33L25,32.5l0,0L23.5,31l0,0h0l4.2-4.2l0.4,0.4l5.7,5.7l0.2,3.1c1.2,0.9,2.6,1.6,4,2
	c1.3,0.4,2.6,0.5,4,0.4c0.4,0,0.7-0.1,1.1-0.1c0.1,0,0.3-0.1,0.4-0.1c0.2,0,0.4-0.1,0.7-0.1c0.1,0,0.1,0,0.1,0
	c0.6-0.2,1.3-0.4,1.8-0.7c0,0,0,0,0,0c1.3-0.6,2.4-1.4,3.4-2.4l0-0.2l-0.1-3.2l0,0l0,0l5.6-5.6l0.7-0.7l4.2,4.2l0,0l0,0l-0.8,0.8
	L53.3,36l2.7,2.7l0.2,0.2l0.4-0.4l6.2-6.2l0,0l0,0l4,4l-6.4,6.4l-3.1,0.2c-2.1,2.1-4.5,3.8-7.2,5C47.5,49,44.6,49.6,41.6,49.7z
	 M48.2,34.2c-1.4,1.2-2.8,1.9-4.1,2.3c0,0,0,0-0.1,0L43,35.5l5.6-5.6l0.3,0.3L48.1,31L48.2,34.2z M42.6,35.5L41.1,37
	c-0.1,0-0.1,0-0.1,0c-1.9-0.1-3.8-0.7-5.7-1.6l-0.1-3l-0.3-0.3L37,30L42.6,35.5z M37.2,29.7l5.6-5.6l5.6,5.6l-5.6,5.6L37.2,29.7z
	 M42.8,35.8l0.9,0.9C43,36.9,42.2,37,41.5,37L42.8,35.8z M48.8,29.7l5.6-5.6l0.3,0.3L49.1,30L48.8,29.7z M48.6,29.5L43,23.9l5.6-5.6
	l5.6,5.6L48.6,29.5z M42.8,23.7l-5.6-5.6l5.6-5.6l5.6,5.6L42.8,23.7z M42.6,23.9L37,29.5l-5.6-5.6l5.6-5.6L42.6,23.9z M36.8,29.7
	l-2.1,2.1L29,26.3l2.1-2.1L36.8,29.7z M65.8,23.9L64,25.7l-0.1,0l-4.5-0.3l2.2,2.2l-0.8,0.8l-5.1-5.1l-0.9,0.9l-0.3-0.3l5.6-5.6
	L65.8,23.9z M60,18.1l-5.6,5.6l-5.6-5.6l5.6-5.6L60,18.1z M54.2,12.3l-5.6,5.6L43,12.3l5.6-5.6L54.2,12.3z M42.8,0.9l5.6,5.6
	l-5.6,5.6l-5.6-5.6L42.8,0.9z M37,6.7l5.6,5.6L37,17.9l-5.6-5.6L37,6.7z M31.2,12.5l5.6,5.6l-5.6,5.6l-5.6-5.6L31.2,12.5z
	 M25.4,18.3l5.6,5.6l-2.1,2.1l-1.3-1.3l-3.5,3.5l-4.3-4.3L25.4,18.3z M19.6,24.1l4.3,4.3l-1.3,1.3L18.7,26L15.7,29l3.8,3.8L18.3,34
	L14,29.7L19.6,24.1z M8.2,35.5l5.6-5.6l4.3,4.3l-3.5,3.5l1.3,1.3l-2.1,2.1L8.2,35.5z M14,41.4l2.1-2.1l5.6,5.6l-2.1,2.1L14,41.4z
	 M19.8,47.2l2.1-2.1l0.4,0.4l2.9-0.2c1.4,1.2,2.9,2.3,4.6,3.1l-4.3,4.3L19.8,47.2z M25.6,53l4.4-4.4c0,0,0,0,0,0
	c1.1,0.6,2.3,1,3.6,1.4c0.1,0,0.1,0,0.2,0.1l3,3l-5.6,5.6L25.6,53z M31.4,58.8l5.6-5.6l5.6,5.6L37,64.4L31.4,58.8z M42.8,70.2
	l-5.6-5.6l5.6-5.6l5.6,5.6L42.8,70.2z M48.6,64.4L43,58.8l5.6-5.6l5.6,5.6L48.6,64.4z M54.4,58.6L48.8,53l5.6-5.6L60,53L54.4,58.6z
	 M60.2,52.7l-5.6-5.6l0.2-0.2c0.2-0.1,0.4-0.2,0.5-0.4c0.9-0.6,1.7-1.4,2.5-2.1c0.1-0.1,0.2-0.2,0.3-0.3l2.8-0.3l0.8-0.8l4,4
	L60.2,52.7z M62,42.9l5.6-5.6l4,4L66,46.9L62,42.9z"/>
<polygon class="st0" points="12.8,23.4 13.2,16.9 11.2,19 2.8,10.5 0,13.3 8.4,21.7 6.3,23.9 "/>
<polygon class="st0" points="72,23.1 80.5,14.6 82.5,16.7 82,10.2 75.6,9.8 77.7,11.9 69.2,20.3 "/>
<path class="st0" d="M45.6,41.3c-1.9,0.5-3.8,0.8-5.8,0.7c-1.9-0.1-3.8-0.5-5.6-1.2l-1.3,4c2.2,0.8,4.5,1.3,6.9,1.4
	c2.3,0.1,4.7-0.2,6.9-0.8l0.8,2.6l2.9-6L45,38.8L45.6,41.3z"/>
<path class="st0" d="M143.1,40.1v9.6h4.5V48c1.5,1.3,3.3,2,5.2,2c4.3,0,7.8-3.6,7.8-7.7c0-2.1-0.7-3.9-1.6-5.3
	c-0.8-1.2-1.9-2.2-4.2-3.4c-1.6-0.8-3.5-1.3-5-2.4c-1.1-0.9-1.4-1.6-1.4-2.3c0-1.4,1.1-2.5,2.5-2.5c2.3,0,4,1.8,3.9,4.1h4.6v-8.5
	h-4.6v1.7c-1.3-1.4-3.1-2.1-4.9-2.1c-3.8,0-7.1,3.1-7.1,7.6c0,2.1,0.8,4.1,2.1,5.6c0.5,0.6,1.3,1.3,3.4,2.5c1.3,0.7,4.7,2,5.6,3.5
	c0.3,0.5,0.5,1.1,0.5,1.8c0,1.6-1.2,3-3.1,3c-1.8,0-3.7-1.8-3.7-4v-1.4H143.1z"/>
<path class="st0" d="M97.4,45.3h-3.1v-7.7H97l6,12.1h8v-4.4h-3l-4.2-8.4c2.8-1.5,4.3-4.1,4.3-7.1c0-4.3-3.5-7.9-7.5-7.9H84v4.4h3.4
	v18.9H84v4.4h13.4V45.3z M94.3,26.3h3.2c1.9,0,3.4,1.5,3.4,3.5c0,1.9-1.5,3.4-3.2,3.4h-3.4V26.3z"/>
<path class="st0" d="M126.8,45.3h-3.1v-7.7h2.7l6,12.1h8v-4.4h-3l-4.2-8.4c2.8-1.5,4.3-4.1,4.3-7.1c0-4.3-3.5-7.9-7.5-7.9h-16.6v4.4
	h3.4v18.9h-3.4v4.4h13.4V45.3z M123.7,26.3h3.2c1.9,0,3.4,1.5,3.4,3.5c0,1.9-1.5,3.4-3.2,3.4h-3.4V26.3z"/>
<path class="st0" d="M68.9,57.8c0.8-0.2,1.2-0.8,1.2-1.6c0-1.4-0.8-1.9-2.6-1.9l-3.2,0l0,1.1l0.7,0V60h-0.7l0,1.1h3.1l0-1.1l-0.7,0
	v-1.9h0.7l1.6,3h1.9l0-1.1h-0.8L68.9,57.8z M67.1,57l-0.4,0v-1.7l0.4,0c0.9,0,1.3,0.2,1.3,0.8C68.4,56.8,68,57,67.1,57z"/>
<polygon class="st0" points="73,56.3 70.9,56.3 70.9,57.3 71.5,57.3 71.5,60.1 70.9,60.1 70.9,61.1 73.7,61.1 73.7,60.1 73,60.1 "/>
<path class="st0" d="M71.4,55c0,0.5,0.4,0.8,0.8,0.8c0.4,0,0.8-0.4,0.8-0.8c0-0.4-0.4-0.8-0.8-0.8C71.7,54.2,71.4,54.5,71.4,55z"/>
<path class="st0" d="M76.6,56.1c-1.5,0-2.6,1-2.6,2.6c0,1.6,1,2.6,2.6,2.6c1.5,0,2.6-1,2.6-2.6C79.2,57.2,78.1,56.1,76.6,56.1z
	 M76.6,60.1c-0.7,0-1.1-0.5-1.1-1.4c0-0.9,0.4-1.4,1.1-1.4c0.7,0,1.1,0.5,1.1,1.4C77.7,59.6,77.2,60.1,76.6,60.1z"/>
<path class="st0" d="M82.3,56.1c-1.5,0-2.6,1-2.6,2.6c0,1.6,1,2.6,2.6,2.6c1.5,0,2.6-1,2.6-2.6C84.9,57.2,83.8,56.1,82.3,56.1z
	 M82.3,60.1c-0.7,0-1.1-0.5-1.1-1.4c0-0.9,0.4-1.4,1.1-1.4c0.7,0,1.1,0.5,1.1,1.4C83.4,59.6,83,60.1,82.3,60.1z"/>
<polygon class="st0" points="87.4,54.3 85.3,54.3 85.3,55.3 85.9,55.3 85.9,60.1 85.3,60.1 85.3,61.1 88.1,61.1 88.1,60.1
	87.4,60.1 "/>
<path class="st0" d="M96.3,57.8c0.8-0.2,1.2-0.8,1.2-1.6c0-1.4-0.8-1.9-2.6-1.9h-3.2v1.1h0.7V60h-0.7v1.1h3.1V60H94l0-1.9h0.7l1.5,3
	h1.9V60l-0.8,0L96.3,57.8z M94.4,57H94l0-1.7l0.4,0c0.9,0,1.3,0.2,1.3,0.8C95.7,56.8,95.3,57,94.4,57z"/>
<path class="st0" d="M100.8,56.1c-1.5,0-2.5,1-2.5,2.6c0,1.6,1,2.6,2.5,2.6c1.1,0,2-0.5,2.4-1.4l-1.1-0.4c-0.2,0.4-0.6,0.7-1.1,0.7
	c-0.7,0-1.1-0.4-1.2-1.2h3.5v-0.1C103.4,57.2,102.4,56.1,100.8,56.1z M99.8,58.1c0-0.6,0.4-0.9,1-0.9c0.6,0,0.9,0.4,1,0.9H99.8z"/>
<path class="st0" d="M104.3,55c0,0.5,0.4,0.8,0.8,0.8c0.4,0,0.8-0.4,0.8-0.8c0-0.4-0.4-0.8-0.8-0.8C104.7,54.2,104.3,54.5,104.3,55z
	"/>
<polygon class="st0" points="105.9,56.3 103.8,56.3 103.8,57.3 104.4,57.3 104.4,60.1 103.8,60.1 103.8,61.1 106.6,61.1 106.6,60.1
	105.9,60.1 "/>
<path class="st0" d="M111.7,57.9c0-1.1-0.5-1.6-1.3-1.6c-0.5,0-0.9,0.2-1.4,0.5v-0.5h-2.1v1.1h0.6v2.7h-0.6v1.1h2.9l0-1.1l-0.7,0
	v-2.3c0.2-0.2,0.5-0.3,0.8-0.3c0.4,0,0.5,0.2,0.5,0.8l0,2.9h2.2v-1.1h-0.7V57.9z"/>
<path class="st0" d="M113.9,55.8c0.4,0,0.8-0.4,0.8-0.8c0-0.4-0.4-0.8-0.8-0.8c-0.4,0-0.8,0.4-0.8,0.8
	C113.1,55.4,113.4,55.8,113.9,55.8z"/>
<polygon class="st0" points="114.7,56.3 112.6,56.3 112.6,57.3 113.2,57.3 113.2,60.1 112.6,60.1 112.6,61.1 115.4,61.1 115.4,60.1
	114.7,60.1 "/>
<path class="st0" d="M119.4,57c-0.5-0.5-1-0.8-1.5-0.8c-1.2,0-2.1,1-2.1,2.5c0,1.5,0.8,2.4,2.1,2.4c0.6,0,1.1-0.2,1.5-0.7
	c0,0.1,0,0.2,0,0.3c0,0.7-0.4,1.1-1.2,1.1c-0.4,0-0.9-0.1-1.4-0.3l-0.7,0.8c0.6,0.4,1.3,0.6,2.1,0.6c1,0,1.7-0.3,2.2-0.8
	c0.4-0.4,0.4-0.9,0.4-1.6v-3.2l0.6,0v-1h-2V57z M118.3,60.2c-0.6,0-1-0.5-1-1.4s0.4-1.4,1-1.4c0.6,0,1,0.5,1,1.4
	S118.9,60.2,118.3,60.2z"/>
<polygon class="st0" points="123.8,56.3 121.7,56.3 121.7,57.3 122.4,57.3 122.4,60.1 121.7,60.1 121.7,61.1 124.5,61.1 124.5,60.1
	123.8,60.1 "/>
<path class="st0" d="M122.2,55c0,0.5,0.4,0.8,0.8,0.8c0.4,0,0.8-0.4,0.8-0.8c0-0.4-0.4-0.8-0.8-0.8C122.6,54.2,122.2,54.5,122.2,55z
	"/>
<path class="st0" d="M129.6,57.9c0-1.1-0.5-1.6-1.3-1.6c-0.5,0-0.9,0.2-1.4,0.5l0-0.5l-2.1,0l0,1.1l0.6,0l0,2.7l-0.6,0l0,1.1h2.9
	l0-1.1l-0.7,0l0-2.3c0.2-0.2,0.5-0.3,0.8-0.3c0.4,0,0.5,0.2,0.5,0.8l0,2.9h2.2v-1.1h-0.7L129.6,57.9z"/>
<path class="st0" d="M134.3,57c-0.5-0.5-1-0.8-1.5-0.8c-1.2,0-2.1,1-2.1,2.5c0,1.5,0.8,2.4,2.1,2.4c0.6,0,1.1-0.2,1.5-0.7
	c0,0.1,0,0.2,0,0.3c0,0.7-0.4,1.1-1.2,1.1c-0.4,0-0.9-0.1-1.4-0.3l-0.7,0.8c0.6,0.4,1.3,0.6,2.1,0.6c1,0,1.7-0.3,2.2-0.8
	c0.4-0.4,0.4-0.9,0.4-1.6v-3.2l0.6,0v-1h-2V57z M133.2,60.2c-0.6,0-1-0.5-1-1.4c0-0.9,0.4-1.4,1-1.4c0.6,0,1,0.5,1,1.4
	C134.2,59.7,133.8,60.2,133.2,60.2z"/>
<path class="st0" d="M139.6,58.1l-0.8-0.2c-0.5-0.1-0.7-0.2-0.7-0.4c0-0.2,0.2-0.4,0.6-0.4c0.5,0,0.8,0.2,1,0.5l1.1,0v-1.4l-1.1,0
	v0.2c-0.4-0.2-0.8-0.3-1.2-0.3c-1,0-1.7,0.6-1.7,1.5c0,0.7,0.4,1.2,1.2,1.4l0.8,0.2c0.6,0.1,0.9,0.2,0.9,0.5c0,0.3-0.2,0.5-0.7,0.5
	c-0.6,0-1-0.3-1-0.8c0,0,0,0,0,0h-1.1l0,1.7h1.1l0-0.2c0.4,0.2,0.8,0.3,1.3,0.3c1,0,1.7-0.7,1.7-1.7C141,58.8,140.6,58.3,139.6,58.1
	z"/>
<path class="st0" d="M148.4,57.1l-0.9-0.4c-0.5-0.2-0.7-0.4-0.7-0.8c0-0.4,0.3-0.7,0.8-0.7c0.6,0,1,0.4,1,1.1h1.1v-2l-1.1,0v0.4
	c-0.5-0.4-0.9-0.5-1.5-0.5c-1.2,0-2,0.8-2,1.9c0,0.8,0.4,1.4,1.3,1.8l1,0.5c0.7,0.3,1,0.6,1,1c0,0.4-0.3,0.7-0.9,0.7
	c-0.8,0-1.2-0.5-1.2-1.3l-1.1,0l0,2.3h1.1v-0.4c0.4,0.4,1,0.6,1.7,0.6c1.2,0,2.1-0.8,2.1-2C150,58.3,149.5,57.6,148.4,57.1z"/>
<path class="st0" d="M153.2,56.1c-1.5,0-2.5,1-2.5,2.6c0,1.6,1,2.6,2.5,2.6c1.1,0,2-0.5,2.4-1.4l-1.1-0.4c-0.2,0.4-0.6,0.7-1.1,0.7
	c-0.7,0-1.1-0.4-1.2-1.2h3.5c0,0,0,0,0-0.1C155.7,57.2,154.7,56.1,153.2,56.1z M152.2,58.1c0-0.6,0.4-0.9,1-0.9c0.6,0,0.9,0.4,1,0.9
	H152.2z"/>
<path class="st0" d="M158.2,57.4v-1.2h-2l0,1l0.6,0l0,2.8l-0.6,0l0,1.1l2.9,0v-1.1l-0.8,0v-0.9c0-1,0.5-1.5,1.7-1.5l0-1.5
	C159,56.1,158.5,56.5,158.2,57.4z"/>
<polygon class="st0" points="166,56.3 166.1,56.3 166.1,56.3 163.6,56.3 163.6,57.3 164.2,57.3 163.4,59.7 162.6,57.3 163.1,57.3
	163.1,56.3 160.4,56.3 160.4,57.3 161.1,57.3 162.5,61.1 163.9,61.1 165.4,57.3 166.1,57.3 166.1,57.3 166,57.3 "/>
<polygon class="st0" points="168.1,56.3 166.1,56.3 166.1,57.3 166.7,57.3 166.7,60.1 166,60.1 166,61.1 168.8,61.1 168.8,60.1
	168.1,60.1 "/>
<path class="st0" d="M167.3,55.8c0.4,0,0.8-0.4,0.8-0.8c0-0.4-0.4-0.8-0.8-0.8c-0.4,0-0.8,0.4-0.8,0.8
	C166.5,55.4,166.9,55.8,167.3,55.8z"/>
<rect x="166" y="56.3" class="st0" width="0" height="1"/>
<rect x="166" y="56.3" class="st0" width="0" height="1"/>
<path class="st0" d="M171.8,60.1c-0.7,0-1.2-0.5-1.2-1.4c0-0.9,0.4-1.4,1.1-1.4c0.6,0,1,0.3,1.2,0.9l1.1,0l0-2h-1v0.4
	c-0.4-0.4-0.8-0.6-1.4-0.6c-1.4,0-2.4,1.1-2.4,2.6c0,1.6,1,2.6,2.6,2.6c1.1,0,1.9-0.5,2.4-1.5l-1.1-0.6
	C172.8,59.8,172.4,60.1,171.8,60.1z"/>
<path class="st0" d="M179.7,58.9c0-1.7-1-2.8-2.5-2.8c-1.5,0-2.5,1-2.5,2.6c0,1.6,1,2.6,2.5,2.6c1.1,0,2-0.5,2.4-1.4l-1.1-0.4
	c-0.2,0.4-0.6,0.7-1.1,0.7c-0.7,0-1.1-0.4-1.2-1.2L179.7,58.9L179.7,58.9z M176.2,58.1c0-0.6,0.4-0.9,1-0.9c0.6,0,0.9,0.4,1,0.9
	L176.2,58.1z"/>
</svg>
